<?xml version="1.0" encoding="UTF-8"?>
<svg width="213px" height="33px" viewBox="0 0 213 33" version="1.1" xmlns="http://www.w3.org/2000/svg" xmlns:xlink="http://www.w3.org/1999/xlink">
    <title>Sağlığım Cepte WEB - Logo</title>
    <defs>
        <polygon id="path-1" points="0 0 101.793388 0 101.793388 27.9 0 27.9"></polygon>
    </defs>
    <g id="1---Landing-Page" stroke="none" stroke-width="1" fill="none" fill-rule="evenodd">
        <g id="UI-Elements/Header/Main/Not-Logined-Copy" transform="translate(-104.000000, -33.000000)">
            <g id="logo" transform="translate(104.496690, 33.779200)">
                <g id="Anadolu-Sigorta-01" transform="translate(110.709922, 2.820800)">
                    <mask id="mask-2" fill="white">
                        <use xlink:href="#path-1"></use>
                    </mask>
                    <g id="Clip-2"></g>
                    <path d="M77.3183534,0.479006774 L82.5932032,0.479006774 L82.5932032,8.43201353 L87.6025534,8.43201353 L87.6025534,11.310205 L77.3183534,11.310205 L77.3183534,0.479006774 Z M56.3277201,21.2041439 L58.3189661,21.2041439 C59.0036312,21.2041439 59.5583355,20.6830753 59.5583355,19.9754957 C59.5583355,19.265979 59.0103245,18.6917797 58.3276116,18.6917797 L56.3277201,18.6917797 L56.3277201,21.2041439 Z M62.8695489,22.8074745 C63.5006679,23.1752388 63.8704707,24.9019876 63.8704707,24.9019876 L64.3972864,27.1525723 L59.5965429,27.1525723 C59.5965429,27.1525723 59.3859839,26.6813138 59.2816806,26.2089484 C59.1757039,25.7376898 58.7534705,23.9063398 58.1223515,23.5421729 C57.4878858,23.1744086 56.3285568,23.3838876 56.3285568,23.3838876 L56.3285568,27.1534025 L51.2121143,27.1534025 L51.2121143,16.2671365 L60.1732791,16.2671365 C62.1681506,16.2671365 63.7778806,17.6366365 63.7778806,19.3282416 C63.7778806,20.6686857 62.7627356,21.8057388 61.3496202,22.2216528 C61.3487836,22.2208226 62.2334099,22.4422007 62.8695489,22.8074745 L62.8695489,22.8074745 Z M40.2867554,21.7351745 C40.2867554,23.4973439 41.493774,24.9282763 42.6879638,24.9282763 C43.883827,24.9282763 45.0883356,23.4973439 45.0883356,21.7351745 C45.0883356,19.9718983 43.883827,18.5420727 42.6879638,18.5420727 C41.493774,18.5420727 40.2867554,19.9718983 40.2867554,21.7351745 L40.2867554,21.7351745 Z M35.2799151,21.9111701 C35.2799151,18.6591264 38.4659087,16.024174 42.6879638,16.024174 C46.9119711,16.024174 50.0960125,18.6591264 50.0960125,21.9111701 C50.0960125,25.162937 46.9119711,27.7989963 42.6879638,27.7989963 C38.4659087,27.7989963 35.2799151,25.162937 35.2799151,21.9111701 L35.2799151,21.9111701 Z M84.2793479,22.7762048 L82.965516,18.8965544 L81.6949114,22.7762048 L84.2793479,22.7762048 Z M75.4726859,27.3266308 L79.5329871,16.4946024 L86.9178883,16.4946024 L90.7662362,27.3266308 L85.3343736,27.3266308 L84.8602674,25.862215 L81.1672591,25.862215 L80.4811995,27.3266308 L75.4726859,27.3266308 Z M64.5015897,19.8432223 L64.5015897,16.4423019 L77.686483,16.4423019 L77.686483,19.8432223 L73.6788912,19.8432223 L73.6788912,27.3266308 L68.6159948,27.3266308 L68.6159948,19.8432223 L64.5015897,19.8432223 Z M34.5972022,26.6475536 C32.435278,27.3266308 29.8990887,27.9166034 27.3403097,27.9166034 C23.1171391,27.9166034 19.9330977,25.1637672 19.9330977,21.9111701 C19.9330977,18.6582962 23.1171391,16.024174 27.3403097,16.024174 C30.7201291,16.024174 34.0712232,18.0658332 34.3852488,20.0535314 L29.5379313,20.0452298 C29.4300025,19.3719637 28.8490829,19.2186594 27.7101125,19.2186594 C26.5156438,19.2186594 25.3080675,20.4080131 25.3080675,22.1718427 C25.3080675,23.935119 26.522616,25.1864584 27.7168058,25.1864584 L29.5878519,25.1864584 L29.6090473,23.5075826 L27.4775216,23.5075826 L27.4775216,21.1006497 L34.5972022,21.1006497 L34.5972022,26.6475536 Z M14.0296389,27.3266308 L18.9873952,27.3266308 L18.9873952,16.4423019 L14.0296389,16.4423019 L14.0296389,27.3266308 Z M16.639454,12.3075132 L19.6193509,13.9039257 L16.639454,15.5797576 L13.6598361,13.9039257 L16.639454,12.3075132 Z M8.01518352,19.8432223 C8.01518352,19.8432223 7.93653767,19.5806126 7.83111876,19.3216002 C7.72514208,19.0587138 7.32996062,18.824053 6.69800496,18.824053 C6.06353932,18.824053 5.56238118,19.1110144 5.56238118,19.6074546 C5.56238118,20.1050018 6.09003349,20.4323646 6.67178968,20.5671285 C7.25187255,20.6949744 8.69817532,20.8875733 8.69817532,20.8875733 C11.4962385,21.2569979 12.9500712,22.5650655 12.9500712,24.2085209 C12.9500712,26.3564415 9.87786308,27.7998264 6.38007492,27.7998264 C2.8856334,27.7998264 0.0527094532,26.1762951 0.0527094532,24.0311417 L5.39114518,24.063795 C5.39114518,24.063795 5.36632433,24.2397905 5.44524907,24.6319064 C5.52333714,25.0256826 5.98573013,25.3464041 6.75155107,25.3464041 C7.51486204,25.3464041 8.01518352,25.103165 8.01518352,24.4232576 C8.01518352,23.7422433 6.03983401,23.4032582 6.03983401,23.4032582 L2.73196721,22.572537 C1.08319321,21.9161511 0,21.0577577 0,19.8172104 C0,17.8082045 2.83459726,16.1813525 6.32736547,16.1813525 C9.82431697,16.1813525 12.6572409,17.8090346 12.6572409,19.8172104 L8.01518352,19.8432223 Z M101.793388,0.479006774 L101.793388,7.80329984 C101.793388,10.4205419 98.7086304,11.6821202 94.9088087,11.6821202 C91.1073137,11.6821202 88.0256235,10.4205419 88.0256235,7.80329984 L88.0256235,0.479006774 L93.1412293,0.479006774 L93.1412293,7.27725023 C93.1412293,8.24356546 93.9315922,9.0286274 94.9088087,9.0286274 C95.8823998,9.0286274 96.6780615,8.24356546 96.6780615,7.27725023 L96.6780615,0.479006774 L101.793388,0.479006774 Z M8.80833529,6.75977902 L7.49534002,2.87985182 L6.22222545,6.75977902 L8.80833529,6.75977902 Z M0,11.310205 L4.06197453,0.479006774 L11.4443657,0.479006774 L15.2943869,11.310205 L9.86252435,11.310205 L9.38841816,9.84578916 L5.69708312,9.84578916 L5.00935025,11.310205 L0,11.310205 Z M15.8212025,11.310205 L15.8212025,0.479006774 L22.0975319,0.479006774 L25.3663546,5.92158634 L25.3663546,0.479006774 L29.6921553,0.479006774 L29.6921553,11.310205 L23.4699299,11.310205 L20.1994338,5.92158634 L20.1994338,11.310205 L15.8212025,11.310205 Z M39.1341196,6.58295329 L37.821961,2.70330282 L36.5496831,6.58295329 L39.1341196,6.58295329 Z M30.3257843,11.310205 L34.3869222,0.479006774 L41.77015,0.479006774 L45.6210078,11.310205 L40.1883086,11.310205 L39.7133658,9.84578916 L36.0223096,9.84578916 L35.3342979,11.310205 L30.3257843,11.310205 Z M51.3164176,8.7283834 L52.663437,8.7283834 C54.1928478,8.7283834 55.4319383,7.39430388 55.4319383,5.72040903 C55.4319383,4.04291679 54.1995411,2.68393224 52.6701303,2.68393224 L51.3164176,2.68393224 L51.3164176,8.7283834 Z M46.1494968,11.310205 L46.1494968,0.479006774 L54.6465953,0.479006774 C57.7645407,0.479006774 60.2826024,2.90254307 60.2826024,5.8952977 C60.2826024,8.88556183 57.7575686,11.3110352 54.6404598,11.3110352 L46.1494968,11.3110352 L46.1494968,11.310205 Z M66.4479351,5.71183063 C66.4479351,7.47593704 67.6524437,8.90493241 68.8483069,8.90493241 C70.0427756,8.90493241 71.2486786,7.47593704 71.2486786,5.71183063 C71.2486786,3.94883112 70.0427756,2.51983575 68.8483069,2.51983575 C67.6524437,2.51983575 66.4479351,3.94883112 66.4479351,5.71183063 L66.4479351,5.71183063 Z M61.4405371,5.88865636 C61.4405371,2.63578251 64.6262518,0 68.8483069,0 C73.0706408,0 76.2546823,2.63578251 76.2546823,5.88865636 C76.2546823,9.13986987 73.0706408,11.773992 68.8483069,11.773992 C64.6262518,11.773992 61.4405371,9.13986987 61.4405371,5.88865636 L61.4405371,5.88865636 Z" id="Fill-1" fill="#21417A" mask="url(#mask-2)"></path>
                </g>
                <g id="SAĞLIĞIM-CEPTE" fill="#2A9AFF" fill-rule="nonzero">
                    <path d="M3.0942,5.6538 C3.0942,5.8698 3.1698,6.0507 3.321,6.1965 C3.4722,6.3423 3.7233,6.4746 4.0743,6.5934 C4.4253,6.7122 4.9248,6.8472 5.5728,6.9984 C6.7716,7.2684 7.6653,7.6923 8.2539,8.2701 C8.8425,8.8479 9.1368,9.6336 9.1368,10.6272 C9.1368,11.4156 8.937,12.1014 8.5374,12.6846 C8.1378,13.2678 7.5978,13.7133 6.9174,14.0211 C6.237,14.3289 5.481,14.4828 4.6494,14.4828 C3.7746,14.4828 2.9997,14.3343 2.3247,14.0373 C1.6497,13.7403 1.1151,13.3245 0.7209,12.7899 C0.3267,12.2553 0.0864,11.6424 0,10.9512 L0.1944,10.692 L2.835,10.1736 C2.889,10.8 3.0915,11.2806 3.4425,11.6154 C3.7935,11.9502 4.2282,12.1176 4.7466,12.1176 C5.211,12.1176 5.5782,12.0042 5.8482,11.7774 C6.1182,11.5506 6.2532,11.2482 6.2532,10.8702 C6.2532,10.5246 6.1803,10.2438 6.0345,10.0278 C5.8887,9.8118 5.643,9.6255 5.2974,9.4689 C4.9518,9.3123 4.4604,9.1692 3.8232,9.0396 C2.808,8.8344 1.9953,8.4618 1.3851,7.9218 C0.7749,7.3818 0.4698,6.6906 0.4698,5.8482 C0.4698,5.2326 0.6399,4.6953 0.9801,4.2363 C1.3203,3.7773 1.7874,3.4263 2.3814,3.1833 C2.9754,2.9403 3.645,2.8188 4.3902,2.8188 C5.643,2.8188 6.6177,3.0969 7.3143,3.6531 C8.0109,4.2093 8.451,4.9464 8.6346,5.8644 L8.424,6.1398 L6.0264,6.4638 C5.9724,5.967 5.7915,5.5674 5.4837,5.265 C5.1759,4.9626 4.7736,4.8114 4.2768,4.8114 C3.9312,4.8114 3.6477,4.8897 3.4263,5.0463 C3.2049,5.2029 3.0942,5.4054 3.0942,5.6538 Z" id="S"></path>
                    <path d="M14.0454,2.9808 L16.6374,2.9808 L21.0762,14.3208 L17.9982,14.3208 L17.3664,12.555 L13.3164,12.555 L12.6846,14.3208 L9.6066,14.3208 L14.0454,2.9808 Z M16.4916,10.0926 L15.552,7.452 L15.4062,6.2046 L15.2766,6.2046 L15.1308,7.452 L14.1912,10.0926 L16.4916,10.0926 Z" id="A"></path>
                    <path d="M33.0642,8.1486 L33.0642,8.9424 C33.0642,10.0332 32.8482,10.9971 32.4162,11.8341 C31.9842,12.6711 31.3686,13.3218 30.5694,13.7862 C29.7702,14.2506 28.836,14.4828 27.7668,14.4828 C26.6544,14.4828 25.6419,14.2317 24.7293,13.7295 C23.8167,13.2273 23.0985,12.5307 22.5747,11.6397 C22.0509,10.7487 21.789,9.7524 21.789,8.6508 C21.789,7.5492 22.0536,6.5529 22.5828,5.6619 C23.112,4.7709 23.8329,4.0743 24.7455,3.5721 C25.6581,3.0699 26.6652,2.8188 27.7668,2.8188 C29.052,2.8188 30.1563,3.1239 31.0797,3.7341 C32.0031,4.3443 32.6376,5.238 32.9832,6.4152 L32.7888,6.7392 L30.2292,7.1928 C30.0564,6.5988 29.7594,6.1371 29.3382,5.8077 C28.917,5.4783 28.3716,5.3136 27.702,5.3136 C27.1296,5.3136 26.6193,5.454 26.1711,5.7348 C25.7229,6.0156 25.3719,6.4071 25.1181,6.9093 C24.8643,7.4115 24.7374,7.992 24.7374,8.6508 C24.7374,9.6552 25.0155,10.4544 25.5717,11.0484 C26.1279,11.6424 26.8758,11.9394 27.8154,11.9394 C28.4742,11.9394 29.0115,11.7855 29.4273,11.4777 C29.8431,11.1699 30.1374,10.7298 30.3102,10.1574 L26.649,10.1574 L26.649,8.1486 L33.0642,8.1486 Z M29.6622,0 C29.6622,0.5508 29.4975,0.9936 29.1681,1.3284 C28.8387,1.6632 28.3824,1.8306 27.7992,1.8306 C27.2268,1.8306 26.7732,1.6632 26.4384,1.3284 C26.1036,0.9936 25.9362,0.5508 25.9362,0 L27.3456,0 C27.3456,0.1512 27.3861,0.2754 27.4671,0.3726 C27.5481,0.4698 27.6588,0.5184 27.7992,0.5184 C27.9396,0.5184 28.0503,0.4698 28.1313,0.3726 C28.2123,0.2754 28.2528,0.1512 28.2528,0 L29.6622,0 Z" id="Ğ"></path>
                    <polygon id="L" points="37.9242 2.9808 37.9242 11.7288 43.3998 11.7288 43.3998 14.3208 34.9758 14.3208 34.9758 2.9808"></polygon>
                    <polygon id="I" points="48.0168 14.3208 45.0684 14.3208 45.0684 2.9808 48.0168 2.9808"></polygon>
                    <path d="M61.0416,8.1486 L61.0416,8.9424 C61.0416,10.0332 60.8256,10.9971 60.3936,11.8341 C59.9616,12.6711 59.346,13.3218 58.5468,13.7862 C57.7476,14.2506 56.8134,14.4828 55.7442,14.4828 C54.6318,14.4828 53.6193,14.2317 52.7067,13.7295 C51.7941,13.2273 51.0759,12.5307 50.5521,11.6397 C50.0283,10.7487 49.7664,9.7524 49.7664,8.6508 C49.7664,7.5492 50.031,6.5529 50.5602,5.6619 C51.0894,4.7709 51.8103,4.0743 52.7229,3.5721 C53.6355,3.0699 54.6426,2.8188 55.7442,2.8188 C57.0294,2.8188 58.1337,3.1239 59.0571,3.7341 C59.9805,4.3443 60.615,5.238 60.9606,6.4152 L60.7662,6.7392 L58.2066,7.1928 C58.0338,6.5988 57.7368,6.1371 57.3156,5.8077 C56.8944,5.4783 56.349,5.3136 55.6794,5.3136 C55.107,5.3136 54.5967,5.454 54.1485,5.7348 C53.7003,6.0156 53.3493,6.4071 53.0955,6.9093 C52.8417,7.4115 52.7148,7.992 52.7148,8.6508 C52.7148,9.6552 52.9929,10.4544 53.5491,11.0484 C54.1053,11.6424 54.8532,11.9394 55.7928,11.9394 C56.4516,11.9394 56.9889,11.7855 57.4047,11.4777 C57.8205,11.1699 58.1148,10.7298 58.2876,10.1574 L54.6264,10.1574 L54.6264,8.1486 L61.0416,8.1486 Z M57.6396,0 C57.6396,0.5508 57.4749,0.9936 57.1455,1.3284 C56.8161,1.6632 56.3598,1.8306 55.7766,1.8306 C55.2042,1.8306 54.7506,1.6632 54.4158,1.3284 C54.081,0.9936 53.9136,0.5508 53.9136,0 L55.323,0 C55.323,0.1512 55.3635,0.2754 55.4445,0.3726 C55.5255,0.4698 55.6362,0.5184 55.7766,0.5184 C55.917,0.5184 56.0277,0.4698 56.1087,0.3726 C56.1897,0.2754 56.2302,0.1512 56.2302,0 L57.6396,0 Z" id="Ğ"></path>
                    <polygon id="I" points="65.9016 14.3208 62.9532 14.3208 62.9532 2.9808 65.9016 2.9808"></polygon>
                    <polygon id="M" points="77.0958 10.4166 75.4596 14.3208 73.1268 14.3208 71.4906 10.4166 71.2152 8.3268 71.0532 8.3268 71.0532 14.3208 68.1048 14.3208 68.1048 2.9808 71.0856 2.9808 74.2932 10.7244 77.5008 2.9808 80.4816 2.9808 80.4816 14.3208 77.5332 14.3208 77.5332 8.3268 77.3712 8.3268"></polygon>
                    <path d="M35.5104,28.9908 C36.126,28.9908 36.6525,28.8315 37.0899,28.5129 C37.5273,28.1943 37.8378,27.7434 38.0214,27.1602 L40.5648,27.5976 L40.7754,27.954 C40.3542,29.1636 39.6873,30.0708 38.7747,30.6756 C37.8621,31.2804 36.7686,31.5828 35.4942,31.5828 C34.4142,31.5828 33.4233,31.3425 32.5215,30.8619 C31.6197,30.3813 30.9015,29.6982 30.3669,28.8126 C29.8323,27.927 29.565,26.9064 29.565,25.7508 C29.565,24.5952 29.8323,23.5746 30.3669,22.689 C30.9015,21.8034 31.6197,21.1203 32.5215,20.6397 C33.4233,20.1591 34.4142,19.9188 35.4942,19.9188 C36.4338,19.9188 37.2762,20.0727 38.0214,20.3805 C38.7666,20.6883 39.3741,21.1176 39.8439,21.6684 C40.3137,22.2192 40.6296,22.8456 40.7916,23.5476 L40.581,23.904 L38.0214,24.3414 C37.8702,23.769 37.5651,23.3208 37.1061,22.9968 C36.6471,22.6728 36.0828,22.5108 35.4132,22.5108 C34.5168,22.5108 33.8094,22.8078 33.291,23.4018 C32.7726,23.9958 32.5134,24.7788 32.5134,25.7508 C32.5134,26.7228 32.7807,27.5058 33.3153,28.0998 C33.8499,28.6938 34.5816,28.9908 35.5104,28.9908 Z" id="C"></path>
                    <polygon id="E" points="45.3114 24.5196 49.815 24.5196 49.815 26.982 45.3114 26.982 45.3114 28.8612 50.4306 28.8612 50.4306 31.4208 42.363 31.4208 42.363 20.0808 50.2524 20.0808 50.2524 22.5432 45.3114 22.5432"></polygon>
                    <path d="M57.1212,20.0808 C58.0284,20.0808 58.8303,20.2374 59.5269,20.5506 C60.2235,20.8638 60.7662,21.3174 61.155,21.9114 C61.5438,22.5054 61.7382,23.2182 61.7382,24.0498 C61.7382,24.8814 61.5438,25.5942 61.155,26.1882 C60.7662,26.7822 60.2235,27.2358 59.5269,27.549 C58.8303,27.8622 58.0284,28.0188 57.1212,28.0188 L55.2096,28.0188 L55.2096,31.4208 L52.2612,31.4208 L52.2612,20.0808 L57.1212,20.0808 Z M56.8782,25.5564 C57.5046,25.5564 57.9798,25.4376 58.3038,25.2 C58.6278,24.9624 58.7898,24.579 58.7898,24.0498 C58.7898,23.5206 58.6278,23.1372 58.3038,22.8996 C57.9798,22.662 57.5046,22.5432 56.8782,22.5432 L55.2096,22.5432 L55.2096,25.5564 L56.8782,25.5564 Z" id="P"></path>
                    <polygon id="T" points="65.5128 31.4208 65.5128 22.6728 62.6778 22.6728 62.6778 20.0808 71.2962 20.0808 71.2962 22.6728 68.4612 22.6728 68.4612 31.4208"></polygon>
                    <polygon id="E" points="75.735 24.5196 80.2386 24.5196 80.2386 26.982 75.735 26.982 75.735 28.8612 80.8542 28.8612 80.8542 31.4208 72.7866 31.4208 72.7866 20.0808 80.676 20.0808 80.676 22.5432 75.735 22.5432"></polygon>
                </g>
                <line x1="95.8462854" y1="1.85908571" x2="95.8462854" y2="29.5034495" id="Path-3" stroke="#21417A" stroke-width="0.9"></line>
            </g>
        </g>
    </g>
</svg>